# xmcd CD database file
#
# Track frame offsets:
#	150
#	14299
#	28448
#	53846
#
# Disc length: 1428 seconds
#
# Revision: 0
# Processed by: cddbd v1.5.1PL0 Copyright (c) Steve Scherf et al.
# Submitted via: CDex 1.51
#
DISCID=2e059204
DTITLE=まるごとわかば - まるごとわかばと! 1
DYEAR=1900
DGENRE=カントリー (一般)
TTITLE0=空と
TTITLE1=空と(カラオケWithコーラス)
TTITLE2=空と(カラオケWithoutコーラス)
TTITLE3=データトラック
EXTD=
EXTT0=
EXTT1=
EXTT2=
EXTT3=
PLAYORDER=
